<mxfile host="app.diagrams.net" modified="2020-10-26T16:38:04.901Z" agent="5.0 (X11)" etag="SUZirMHP-QmYQpGFlXg6" version="13.8.3" type="github">
  <diagram id="C5RBs43oDa-KdzZeNtuy" name="Page-1">
    <mxGraphModel dx="1357" dy="778" grid="1" gridSize="10" guides="1" tooltips="1" connect="1" arrows="1" fold="1" page="1" pageScale="1" pageWidth="827" pageHeight="1169" math="0" shadow="0">
      <root>
        <mxCell id="WIyWlLk6GJQsqaUBKTNV-0" />
        <mxCell id="WIyWlLk6GJQsqaUBKTNV-1" parent="WIyWlLk6GJQsqaUBKTNV-0" />
        <mxCell id="WIyWlLk6GJQsqaUBKTNV-3" value="setup" style="rounded=1;whiteSpace=wrap;html=1;fontSize=12;glass=0;strokeWidth=1;shadow=0;" parent="WIyWlLk6GJQsqaUBKTNV-1" vertex="1">
          <mxGeometry x="70" y="40" width="120" height="40" as="geometry" />
        </mxCell>
        <mxCell id="EW-SPscekSiXsetjh3dg-3" style="edgeStyle=orthogonalEdgeStyle;rounded=0;orthogonalLoop=1;jettySize=auto;html=1;" edge="1" parent="WIyWlLk6GJQsqaUBKTNV-1" source="EW-SPscekSiXsetjh3dg-0" target="EW-SPscekSiXsetjh3dg-1">
          <mxGeometry relative="1" as="geometry" />
        </mxCell>
        <mxCell id="EW-SPscekSiXsetjh3dg-0" value="&lt;div&gt;connect to WiFi&lt;/div&gt;" style="rounded=0;whiteSpace=wrap;html=1;" vertex="1" parent="WIyWlLk6GJQsqaUBKTNV-1">
          <mxGeometry x="70" y="110" width="120" height="30" as="geometry" />
        </mxCell>
        <mxCell id="EW-SPscekSiXsetjh3dg-12" value="" style="edgeStyle=orthogonalEdgeStyle;rounded=0;orthogonalLoop=1;jettySize=auto;html=1;" edge="1" parent="WIyWlLk6GJQsqaUBKTNV-1" source="EW-SPscekSiXsetjh3dg-1" target="EW-SPscekSiXsetjh3dg-11">
          <mxGeometry relative="1" as="geometry" />
        </mxCell>
        <mxCell id="EW-SPscekSiXsetjh3dg-13" value="YES" style="edgeLabel;html=1;align=center;verticalAlign=middle;resizable=0;points=[];" vertex="1" connectable="0" parent="EW-SPscekSiXsetjh3dg-12">
          <mxGeometry x="-0.3111" relative="1" as="geometry">
            <mxPoint as="offset" />
          </mxGeometry>
        </mxCell>
        <mxCell id="EW-SPscekSiXsetjh3dg-20" value="NO" style="edgeStyle=orthogonalEdgeStyle;rounded=0;orthogonalLoop=1;jettySize=auto;html=1;exitX=1;exitY=0.5;exitDx=0;exitDy=0;entryX=1;entryY=0.5;entryDx=0;entryDy=0;" edge="1" parent="WIyWlLk6GJQsqaUBKTNV-1" source="EW-SPscekSiXsetjh3dg-1" target="EW-SPscekSiXsetjh3dg-8">
          <mxGeometry x="-0.8202" relative="1" as="geometry">
            <mxPoint x="250" y="540" as="targetPoint" />
            <Array as="points">
              <mxPoint x="240" y="210" />
              <mxPoint x="240" y="525" />
            </Array>
            <mxPoint as="offset" />
          </mxGeometry>
        </mxCell>
        <mxCell id="EW-SPscekSiXsetjh3dg-1" value="&lt;div&gt;is&lt;/div&gt;&lt;div&gt;online?&lt;br&gt;&lt;/div&gt;" style="rhombus;whiteSpace=wrap;html=1;" vertex="1" parent="WIyWlLk6GJQsqaUBKTNV-1">
          <mxGeometry x="90" y="170" width="80" height="80" as="geometry" />
        </mxCell>
        <mxCell id="EW-SPscekSiXsetjh3dg-2" value="" style="endArrow=classic;html=1;exitX=0.5;exitY=1;exitDx=0;exitDy=0;entryX=0.5;entryY=0;entryDx=0;entryDy=0;" edge="1" parent="WIyWlLk6GJQsqaUBKTNV-1" source="WIyWlLk6GJQsqaUBKTNV-3" target="EW-SPscekSiXsetjh3dg-0">
          <mxGeometry width="50" height="50" relative="1" as="geometry">
            <mxPoint x="300" y="420" as="sourcePoint" />
            <mxPoint x="350" y="370" as="targetPoint" />
          </mxGeometry>
        </mxCell>
        <mxCell id="EW-SPscekSiXsetjh3dg-8" value="NFC reader" style="rounded=1;whiteSpace=wrap;html=1;" vertex="1" parent="WIyWlLk6GJQsqaUBKTNV-1">
          <mxGeometry x="70" y="510" width="120" height="30" as="geometry" />
        </mxCell>
        <mxCell id="EW-SPscekSiXsetjh3dg-15" value="" style="edgeStyle=orthogonalEdgeStyle;rounded=0;orthogonalLoop=1;jettySize=auto;html=1;" edge="1" parent="WIyWlLk6GJQsqaUBKTNV-1" source="EW-SPscekSiXsetjh3dg-11" target="EW-SPscekSiXsetjh3dg-14">
          <mxGeometry relative="1" as="geometry" />
        </mxCell>
        <mxCell id="EW-SPscekSiXsetjh3dg-11" value="download list of tokens" style="whiteSpace=wrap;html=1;" vertex="1" parent="WIyWlLk6GJQsqaUBKTNV-1">
          <mxGeometry x="70" y="300" width="120" height="40" as="geometry" />
        </mxCell>
        <mxCell id="EW-SPscekSiXsetjh3dg-17" value="" style="edgeStyle=orthogonalEdgeStyle;rounded=0;orthogonalLoop=1;jettySize=auto;html=1;" edge="1" parent="WIyWlLk6GJQsqaUBKTNV-1" source="EW-SPscekSiXsetjh3dg-14" target="EW-SPscekSiXsetjh3dg-16">
          <mxGeometry relative="1" as="geometry" />
        </mxCell>
        <mxCell id="EW-SPscekSiXsetjh3dg-14" value="&lt;div&gt;connect to Telegram&lt;/div&gt;" style="whiteSpace=wrap;html=1;" vertex="1" parent="WIyWlLk6GJQsqaUBKTNV-1">
          <mxGeometry x="70" y="370" width="120" height="40" as="geometry" />
        </mxCell>
        <mxCell id="EW-SPscekSiXsetjh3dg-18" style="edgeStyle=orthogonalEdgeStyle;rounded=0;orthogonalLoop=1;jettySize=auto;html=1;" edge="1" parent="WIyWlLk6GJQsqaUBKTNV-1" source="EW-SPscekSiXsetjh3dg-16" target="EW-SPscekSiXsetjh3dg-8">
          <mxGeometry relative="1" as="geometry" />
        </mxCell>
        <mxCell id="EW-SPscekSiXsetjh3dg-16" value="connect to IoT cloud" style="whiteSpace=wrap;html=1;" vertex="1" parent="WIyWlLk6GJQsqaUBKTNV-1">
          <mxGeometry x="70" y="440" width="120" height="40" as="geometry" />
        </mxCell>
        <mxCell id="EW-SPscekSiXsetjh3dg-26" value="" style="edgeStyle=orthogonalEdgeStyle;rounded=0;orthogonalLoop=1;jettySize=auto;html=1;" edge="1" parent="WIyWlLk6GJQsqaUBKTNV-1" source="EW-SPscekSiXsetjh3dg-22" target="EW-SPscekSiXsetjh3dg-25">
          <mxGeometry relative="1" as="geometry" />
        </mxCell>
        <mxCell id="EW-SPscekSiXsetjh3dg-22" value="&lt;div&gt;NFC reader&lt;/div&gt;" style="whiteSpace=wrap;html=1;rounded=1;" vertex="1" parent="WIyWlLk6GJQsqaUBKTNV-1">
          <mxGeometry x="410" y="40" width="120" height="40" as="geometry" />
        </mxCell>
        <mxCell id="EW-SPscekSiXsetjh3dg-28" value="" style="edgeStyle=orthogonalEdgeStyle;rounded=0;orthogonalLoop=1;jettySize=auto;html=1;" edge="1" parent="WIyWlLk6GJQsqaUBKTNV-1" source="EW-SPscekSiXsetjh3dg-25" target="EW-SPscekSiXsetjh3dg-27">
          <mxGeometry relative="1" as="geometry" />
        </mxCell>
        <mxCell id="EW-SPscekSiXsetjh3dg-25" value="wait for NFC token" style="whiteSpace=wrap;html=1;rounded=0;" vertex="1" parent="WIyWlLk6GJQsqaUBKTNV-1">
          <mxGeometry x="405" y="140" width="130" height="30" as="geometry" />
        </mxCell>
        <mxCell id="EW-SPscekSiXsetjh3dg-30" value="" style="edgeStyle=orthogonalEdgeStyle;rounded=0;orthogonalLoop=1;jettySize=auto;html=1;" edge="1" parent="WIyWlLk6GJQsqaUBKTNV-1" source="EW-SPscekSiXsetjh3dg-27" target="EW-SPscekSiXsetjh3dg-29">
          <mxGeometry relative="1" as="geometry" />
        </mxCell>
        <mxCell id="EW-SPscekSiXsetjh3dg-27" value="new token" style="shape=parallelogram;perimeter=parallelogramPerimeter;whiteSpace=wrap;html=1;fixedSize=1;rounded=0;" vertex="1" parent="WIyWlLk6GJQsqaUBKTNV-1">
          <mxGeometry x="410" y="200" width="120" height="40" as="geometry" />
        </mxCell>
        <mxCell id="EW-SPscekSiXsetjh3dg-32" value="" style="edgeStyle=orthogonalEdgeStyle;rounded=0;orthogonalLoop=1;jettySize=auto;html=1;" edge="1" parent="WIyWlLk6GJQsqaUBKTNV-1" source="EW-SPscekSiXsetjh3dg-29" target="EW-SPscekSiXsetjh3dg-31">
          <mxGeometry relative="1" as="geometry" />
        </mxCell>
        <mxCell id="EW-SPscekSiXsetjh3dg-29" value="check if in list of approved tokens" style="whiteSpace=wrap;html=1;rounded=0;" vertex="1" parent="WIyWlLk6GJQsqaUBKTNV-1">
          <mxGeometry x="410" y="280" width="120" height="60" as="geometry" />
        </mxCell>
        <mxCell id="EW-SPscekSiXsetjh3dg-34" value="NO" style="edgeStyle=orthogonalEdgeStyle;rounded=0;orthogonalLoop=1;jettySize=auto;html=1;" edge="1" parent="WIyWlLk6GJQsqaUBKTNV-1" source="EW-SPscekSiXsetjh3dg-31" target="EW-SPscekSiXsetjh3dg-33">
          <mxGeometry relative="1" as="geometry" />
        </mxCell>
        <mxCell id="EW-SPscekSiXsetjh3dg-36" value="YES" style="edgeStyle=orthogonalEdgeStyle;rounded=0;orthogonalLoop=1;jettySize=auto;html=1;" edge="1" parent="WIyWlLk6GJQsqaUBKTNV-1" source="EW-SPscekSiXsetjh3dg-31" target="EW-SPscekSiXsetjh3dg-35">
          <mxGeometry relative="1" as="geometry" />
        </mxCell>
        <mxCell id="EW-SPscekSiXsetjh3dg-31" value="is approved?" style="rhombus;whiteSpace=wrap;html=1;rounded=0;" vertex="1" parent="WIyWlLk6GJQsqaUBKTNV-1">
          <mxGeometry x="430" y="370" width="80" height="80" as="geometry" />
        </mxCell>
        <mxCell id="EW-SPscekSiXsetjh3dg-37" value="NO" style="edgeStyle=orthogonalEdgeStyle;rounded=0;orthogonalLoop=1;jettySize=auto;html=1;exitX=1;exitY=0.5;exitDx=0;exitDy=0;entryX=0.75;entryY=0;entryDx=0;entryDy=0;" edge="1" parent="WIyWlLk6GJQsqaUBKTNV-1" source="EW-SPscekSiXsetjh3dg-33" target="EW-SPscekSiXsetjh3dg-25">
          <mxGeometry x="-0.9331" relative="1" as="geometry">
            <Array as="points">
              <mxPoint x="750" y="410" />
              <mxPoint x="750" y="100" />
              <mxPoint x="503" y="100" />
            </Array>
            <mxPoint as="offset" />
          </mxGeometry>
        </mxCell>
        <mxCell id="EW-SPscekSiXsetjh3dg-39" value="YES" style="edgeStyle=orthogonalEdgeStyle;rounded=0;orthogonalLoop=1;jettySize=auto;html=1;" edge="1" parent="WIyWlLk6GJQsqaUBKTNV-1" source="EW-SPscekSiXsetjh3dg-33" target="EW-SPscekSiXsetjh3dg-38">
          <mxGeometry relative="1" as="geometry" />
        </mxCell>
        <mxCell id="EW-SPscekSiXsetjh3dg-33" value="is online?" style="rhombus;whiteSpace=wrap;html=1;rounded=0;" vertex="1" parent="WIyWlLk6GJQsqaUBKTNV-1">
          <mxGeometry x="620" y="370" width="80" height="80" as="geometry" />
        </mxCell>
        <mxCell id="EW-SPscekSiXsetjh3dg-51" value="YES" style="edgeStyle=orthogonalEdgeStyle;rounded=0;orthogonalLoop=1;jettySize=auto;html=1;" edge="1" parent="WIyWlLk6GJQsqaUBKTNV-1" source="EW-SPscekSiXsetjh3dg-35" target="EW-SPscekSiXsetjh3dg-50">
          <mxGeometry relative="1" as="geometry" />
        </mxCell>
        <mxCell id="EW-SPscekSiXsetjh3dg-55" value="NO" style="edgeStyle=orthogonalEdgeStyle;rounded=0;orthogonalLoop=1;jettySize=auto;html=1;exitX=1;exitY=0.5;exitDx=0;exitDy=0;entryX=1;entryY=0.25;entryDx=0;entryDy=0;" edge="1" parent="WIyWlLk6GJQsqaUBKTNV-1" source="EW-SPscekSiXsetjh3dg-35" target="EW-SPscekSiXsetjh3dg-52">
          <mxGeometry x="-0.7736" relative="1" as="geometry">
            <Array as="points">
              <mxPoint x="560" y="540" />
              <mxPoint x="560" y="773" />
            </Array>
            <mxPoint as="offset" />
          </mxGeometry>
        </mxCell>
        <mxCell id="EW-SPscekSiXsetjh3dg-35" value="is online?" style="rhombus;whiteSpace=wrap;html=1;rounded=0;" vertex="1" parent="WIyWlLk6GJQsqaUBKTNV-1">
          <mxGeometry x="430" y="500" width="80" height="80" as="geometry" />
        </mxCell>
        <mxCell id="EW-SPscekSiXsetjh3dg-43" value="" style="edgeStyle=orthogonalEdgeStyle;rounded=0;orthogonalLoop=1;jettySize=auto;html=1;" edge="1" parent="WIyWlLk6GJQsqaUBKTNV-1" source="EW-SPscekSiXsetjh3dg-38" target="EW-SPscekSiXsetjh3dg-42">
          <mxGeometry relative="1" as="geometry" />
        </mxCell>
        <mxCell id="EW-SPscekSiXsetjh3dg-38" value="send Telegram msg and read reply" style="whiteSpace=wrap;html=1;rounded=0;" vertex="1" parent="WIyWlLk6GJQsqaUBKTNV-1">
          <mxGeometry x="590" y="490" width="140" height="40" as="geometry" />
        </mxCell>
        <mxCell id="EW-SPscekSiXsetjh3dg-44" value="NO" style="edgeStyle=orthogonalEdgeStyle;rounded=0;orthogonalLoop=1;jettySize=auto;html=1;exitX=1;exitY=0.5;exitDx=0;exitDy=0;entryX=0.75;entryY=0;entryDx=0;entryDy=0;" edge="1" parent="WIyWlLk6GJQsqaUBKTNV-1" source="EW-SPscekSiXsetjh3dg-42" target="EW-SPscekSiXsetjh3dg-25">
          <mxGeometry x="-0.9118" relative="1" as="geometry">
            <Array as="points">
              <mxPoint x="780" y="604" />
              <mxPoint x="780" y="100" />
              <mxPoint x="503" y="100" />
            </Array>
            <mxPoint as="offset" />
          </mxGeometry>
        </mxCell>
        <mxCell id="EW-SPscekSiXsetjh3dg-46" value="YES" style="edgeStyle=orthogonalEdgeStyle;rounded=0;orthogonalLoop=1;jettySize=auto;html=1;" edge="1" parent="WIyWlLk6GJQsqaUBKTNV-1" source="EW-SPscekSiXsetjh3dg-42" target="EW-SPscekSiXsetjh3dg-45">
          <mxGeometry relative="1" as="geometry" />
        </mxCell>
        <mxCell id="EW-SPscekSiXsetjh3dg-42" value="is approved?" style="rhombus;whiteSpace=wrap;html=1;rounded=0;" vertex="1" parent="WIyWlLk6GJQsqaUBKTNV-1">
          <mxGeometry x="620" y="564" width="80" height="80" as="geometry" />
        </mxCell>
        <mxCell id="EW-SPscekSiXsetjh3dg-57" style="edgeStyle=orthogonalEdgeStyle;rounded=0;orthogonalLoop=1;jettySize=auto;html=1;exitX=0.5;exitY=1;exitDx=0;exitDy=0;entryX=1;entryY=0.75;entryDx=0;entryDy=0;" edge="1" parent="WIyWlLk6GJQsqaUBKTNV-1" source="EW-SPscekSiXsetjh3dg-45" target="EW-SPscekSiXsetjh3dg-52">
          <mxGeometry relative="1" as="geometry">
            <mxPoint x="660" y="850" as="targetPoint" />
          </mxGeometry>
        </mxCell>
        <mxCell id="EW-SPscekSiXsetjh3dg-45" value="&lt;div&gt;add to approved list and to online DB&lt;/div&gt;" style="whiteSpace=wrap;html=1;rounded=0;" vertex="1" parent="WIyWlLk6GJQsqaUBKTNV-1">
          <mxGeometry x="595" y="694" width="130" height="40" as="geometry" />
        </mxCell>
        <mxCell id="EW-SPscekSiXsetjh3dg-53" style="edgeStyle=orthogonalEdgeStyle;rounded=0;orthogonalLoop=1;jettySize=auto;html=1;exitX=0.5;exitY=1;exitDx=0;exitDy=0;entryX=0.5;entryY=0;entryDx=0;entryDy=0;" edge="1" parent="WIyWlLk6GJQsqaUBKTNV-1" source="EW-SPscekSiXsetjh3dg-50" target="EW-SPscekSiXsetjh3dg-52">
          <mxGeometry relative="1" as="geometry" />
        </mxCell>
        <mxCell id="EW-SPscekSiXsetjh3dg-50" value="send Telegram msg" style="whiteSpace=wrap;html=1;rounded=0;" vertex="1" parent="WIyWlLk6GJQsqaUBKTNV-1">
          <mxGeometry x="400" y="620" width="140" height="40" as="geometry" />
        </mxCell>
        <mxCell id="EW-SPscekSiXsetjh3dg-56" style="edgeStyle=orthogonalEdgeStyle;rounded=0;orthogonalLoop=1;jettySize=auto;html=1;exitX=0.5;exitY=1;exitDx=0;exitDy=0;entryX=0.25;entryY=0;entryDx=0;entryDy=0;" edge="1" parent="WIyWlLk6GJQsqaUBKTNV-1" source="EW-SPscekSiXsetjh3dg-52" target="EW-SPscekSiXsetjh3dg-25">
          <mxGeometry relative="1" as="geometry">
            <Array as="points">
              <mxPoint x="470" y="850" />
              <mxPoint x="350" y="850" />
              <mxPoint x="350" y="100" />
              <mxPoint x="438" y="100" />
            </Array>
          </mxGeometry>
        </mxCell>
        <mxCell id="EW-SPscekSiXsetjh3dg-52" value="open door" style="whiteSpace=wrap;html=1;rounded=0;" vertex="1" parent="WIyWlLk6GJQsqaUBKTNV-1">
          <mxGeometry x="410" y="760" width="120" height="50" as="geometry" />
        </mxCell>
      </root>
    </mxGraphModel>
  </diagram>
</mxfile>
